<svg id="Group_73" data-name="Group 73" xmlns="http://www.w3.org/2000/svg" xmlns:xlink="http://www.w3.org/1999/xlink" width="87.92" height="53.465" viewBox="0 0 87.92 53.465">
  <defs>
    <style>
      .cls-1 {
        fill: url(#linear-gradient);
      }
    </style>
    <linearGradient id="linear-gradient" x1="0.964" y1="0.07" x2="-0.044" y2="1" gradientUnits="objectBoundingBox">
      <stop offset="0" stop-color="#50f29c"/>
      <stop offset="1" stop-color="#00bddb"/>
    </linearGradient>
  </defs>
  <path id="Path_32" data-name="Path 32" class="cls-1" d="M-1196.526-2029.812h-.06c-.022-.041-.027-.087-.053-.126l-7.538-11.122a1.4,1.4,0,0,0-1.159-.615h-12.808v-11.943a1.4,1.4,0,0,0-1.4-1.4h-22.613a1.4,1.4,0,0,0-1.4,1.4,1.4,1.4,0,0,0,1.4,1.4h21.212v41.063h-24.511a8.205,8.205,0,0,0-8.069-6.795,8.2,8.2,0,0,0-8.069,6.795h-6.265a1.4,1.4,0,0,0-1.4,1.4,1.4,1.4,0,0,0,1.4,1.4h6.265a8.2,8.2,0,0,0,8.069,6.8,8.206,8.206,0,0,0,8.069-6.8h31.2a8.206,8.206,0,0,0,8.069,6.8,8.2,8.2,0,0,0,8.069-6.8h2.234a4.557,4.557,0,0,0,4.552-4.552v-11.714A5.2,5.2,0,0,0-1196.526-2029.812Zm-57,25.454a5.4,5.4,0,0,1-5.395-5.395,5.4,5.4,0,0,1,5.395-5.393,5.4,5.4,0,0,1,5.395,5.393A5.4,5.4,0,0,1-1253.528-2004.358Zm47.341,0a5.4,5.4,0,0,1-5.395-5.395,5.4,5.4,0,0,1,5.395-5.393,5.4,5.4,0,0,1,5.395,5.393A5.4,5.4,0,0,1-1206.187-2004.358Zm12.052-8.546a1.751,1.751,0,0,1-1.749,1.749h-2.234a8.2,8.2,0,0,0-8.069-6.795,8.205,8.205,0,0,0-8.069,6.795h-3.888v-27.718h12.063l6.15,9.074a5.2,5.2,0,0,0-3.146,1.17,2.393,2.393,0,0,1-1.519.545h-9.871a1.4,1.4,0,0,0-1.4,1.4,1.4,1.4,0,0,0,1.4,1.4h9.871a5.2,5.2,0,0,0,3.3-1.184,2.406,2.406,0,0,1,1.521-.545h3.249a2.393,2.393,0,0,1,2.391,2.391Z" transform="translate(1279.252 2055.02)"/>
  <path id="Path_33" data-name="Path 33" class="cls-1" d="M-1266.627-2046.222h37.563a1.4,1.4,0,0,0,1.4-1.4,1.4,1.4,0,0,0-1.4-1.4h-37.563a1.4,1.4,0,0,0-1.4,1.4A1.4,1.4,0,0,0-1266.627-2046.222Z" transform="translate(1279.748 2057.428)"/>
  <path id="Path_34" data-name="Path 34" class="cls-1" d="M-1241.179-2035.633a1.4,1.4,0,0,0-1.4-1.4h-28.544a1.4,1.4,0,0,0-1.4,1.4,1.4,1.4,0,0,0,1.4,1.4h28.544A1.4,1.4,0,0,0-1241.179-2035.633Z" transform="translate(1277.942 2062.243)"/>
  <path id="Path_35" data-name="Path 35" class="cls-1" d="M-1262.94-2030.041a1.4,1.4,0,0,0-1.4-1.4h-5.6a1.4,1.4,0,0,0-1.4,1.4,1.4,1.4,0,0,0,1.4,1.4h5.6A1.4,1.4,0,0,0-1262.94-2030.041Z" transform="translate(1278.415 2064.489)"/>
  <path id="Path_36" data-name="Path 36" class="cls-1" d="M-1234.289-2041.716a1.4,1.4,0,0,0-1.4-1.4h-23.973a1.4,1.4,0,0,0-1.4,1.4,1.4,1.4,0,0,0,1.4,1.4h23.973A1.4,1.4,0,0,0-1234.289-2041.716Z" transform="translate(1282.545 2059.8)"/>
  <path id="Path_37" data-name="Path 37" class="cls-1" d="M-1264.776-2043.118a1.4,1.4,0,0,0-1.4,1.4,1.4,1.4,0,0,0,1.4,1.4h2.1a1.4,1.4,0,0,0,1.4-1.4,1.4,1.4,0,0,0-1.4-1.4Z" transform="translate(1280.491 2059.8)"/>
  <path id="Path_38" data-name="Path 38" class="cls-1" d="M-1272.887-2031.442h-2.1a1.4,1.4,0,0,0-1.4,1.4,1.4,1.4,0,0,0,1.4,1.4h2.1a1.4,1.4,0,0,0,1.4-1.4A1.4,1.4,0,0,0-1272.887-2031.442Z" transform="translate(1276.39 2064.489)"/>
  <path id="Path_39" data-name="Path 39" class="cls-1" d="M-1254.55-2052.217h2.1a1.4,1.4,0,0,0,1.4-1.4,1.4,1.4,0,0,0-1.4-1.4h-2.1a1.4,1.4,0,0,0-1.4,1.4A1.4,1.4,0,0,0-1254.55-2052.217Z" transform="translate(1284.598 2055.02)"/>
  <path id="Path_40" data-name="Path 40" class="cls-1" d="M-1227.2-2032.36h-2.564a1.4,1.4,0,0,0-1.4,1.4,1.4,1.4,0,0,0,1.4,1.4h2.564a1.4,1.4,0,0,0,1.4-1.4A1.4,1.4,0,0,0-1227.2-2032.36Z" transform="translate(1294.551 2064.12)"/>
  <path id="Path_41" data-name="Path 41" class="cls-1" d="M-1245.871-2022.474h12.327a1.4,1.4,0,0,0,1.4-1.4v-7.93a1.4,1.4,0,0,0-1.4-1.4,1.4,1.4,0,0,0-1.4,1.4v6.529h-10.925a1.4,1.4,0,0,0-1.4,1.4A1.4,1.4,0,0,0-1245.871-2022.474Z" transform="translate(1288.084 2063.78)"/>
</svg>
