<svg xmlns="http://www.w3.org/2000/svg" xmlns:xlink="http://www.w3.org/1999/xlink" width="58.329" height="65.982" viewBox="0 0 58.329 65.982">
  <defs>
    <style>
      .cls-1 {
        fill: url(#linear-gradient);
      }
    </style>
    <linearGradient id="linear-gradient" x1="0.5" x2="0.5" y2="1" gradientUnits="objectBoundingBox">
      <stop offset="0" stop-color="#50f29c"/>
      <stop offset="1" stop-color="#00bddb"/>
    </linearGradient>
  </defs>
  <g id="Group_74" data-name="Group 74" transform="translate(0 0)">
    <path id="Path_42" data-name="Path 42" class="cls-1" d="M-1142.869-2034.12a9.346,9.346,0,0,0-9.336-9.336,9.346,9.346,0,0,0-9.336,9.336,9.341,9.341,0,0,0,7.934,9.218v15.188a11.02,11.02,0,0,1-11.008,11.008h-5.041a11.021,11.021,0,0,1-11.01-11.008v-1.27a4.532,4.532,0,0,0,3.141-4.3v-1.906a53.4,53.4,0,0,0,12.951-13.754,4.548,4.548,0,0,0-.8-5.667,24.932,24.932,0,0,0,2.258-13.31,11.5,11.5,0,0,0-8.11-9.51v-1.055a1.4,1.4,0,0,0-1.4-1.4,1.4,1.4,0,0,0-1.4,1.4v3.912a1.4,1.4,0,0,0,1.4,1.4,1.39,1.39,0,0,0,1.376-1.28,8.538,8.538,0,0,1,5.358,6.913,22.03,22.03,0,0,1-2.027,11.755,4.543,4.543,0,0,0-4.429,2.143,36.549,36.549,0,0,1-2.732,3.674c-6.048,2.37-12.521.479-13.991-.013a36.179,36.179,0,0,1-2.708-3.656,4.542,4.542,0,0,0-4.433-2.151,22.038,22.038,0,0,1-2.025-11.753,8.5,8.5,0,0,1,5.357-6.918,1.39,1.39,0,0,0,1.378,1.286,1.4,1.4,0,0,0,1.4-1.4v-3.912a1.4,1.4,0,0,0-1.4-1.4,1.4,1.4,0,0,0-1.4,1.4v1.055a11.5,11.5,0,0,0-8.111,9.51,24.96,24.96,0,0,0,2.259,13.307,4.508,4.508,0,0,0-1.317,2.231,4.506,4.506,0,0,0,.517,3.438,53.324,53.324,0,0,0,12.948,13.754v1.906a4.532,4.532,0,0,0,3.141,4.3v1.27a13.828,13.828,0,0,0,13.813,13.811h5.041a13.828,13.828,0,0,0,13.811-13.811V-2024.9A9.341,9.341,0,0,0-1142.869-2034.12Zm-35.7,5.916a44.365,44.365,0,0,1-3.5,3.064,44.264,44.264,0,0,1-3.591-3.148,26.165,26.165,0,0,0,3.988.314A23.081,23.081,0,0,0-1178.566-2028.2Zm-5.824,9.168a50.342,50.342,0,0,1-12.767-13.351,1.734,1.734,0,0,1-.2-1.316,1.738,1.738,0,0,1,.792-1.072,1.73,1.73,0,0,1,.891-.247,1.752,1.752,0,0,1,1.5.851,47.9,47.9,0,0,0,11.268,11.919,1.4,1.4,0,0,0,1.673,0,48.677,48.677,0,0,0,7.985-7.543l.022-.025a40.181,40.181,0,0,0,3.267-4.36,1.743,1.743,0,0,1,2.387-.59h0a1.738,1.738,0,0,1,.591,2.381,50.341,50.341,0,0,1-12.769,13.352,1.4,1.4,0,0,0-.583,1.136v2.618a1.74,1.74,0,0,1-1.739,1.738,1.74,1.74,0,0,1-1.739-1.738v-2.618A1.4,1.4,0,0,0-1184.39-2019.036Zm32.185-8.551a6.541,6.541,0,0,1-6.533-6.533,6.539,6.539,0,0,1,6.533-6.533,6.538,6.538,0,0,1,6.533,6.533A6.54,6.54,0,0,1-1152.2-2027.587Z" transform="translate(1201.198 2061.884)"/>
    <path id="Path_43" data-name="Path 43" class="cls-1" d="M-1165.332-2045.641a4.482,4.482,0,0,0-4.477,4.477,1.4,1.4,0,0,0,1.4,1.4,1.4,1.4,0,0,0,1.4-1.4,1.676,1.676,0,0,1,1.673-1.673,1.4,1.4,0,0,0,1.4-1.4A1.4,1.4,0,0,0-1165.332-2045.641Z" transform="translate(1213.804 2068.407)"/>
  </g>
</svg>
