<svg xmlns="http://www.w3.org/2000/svg" width="22.738" height="30.169" viewBox="0 0 22.738 30.169">
  <g id="Group_55" data-name="Group 55" transform="translate(1141.665 2051.53)">
    <g id="Group_53" data-name="Group 53" transform="translate(-1140.665 -2050.53)">
      <path id="Path_44" data-name="Path 44" d="M-1124.46-2032.241v7.535a2.346,2.346,0,0,1-2.346,2.345h-11.514a2.345,2.345,0,0,1-2.345-2.345v-23.478a2.346,2.346,0,0,1,2.345-2.346h11.514a2.347,2.347,0,0,1,2.346,2.346v8.654" transform="translate(1140.665 2050.53)" fill="none" stroke="#fff" stroke-linecap="round" stroke-linejoin="round" stroke-width="2"/>
      <line id="Line_1" data-name="Line 1" x2="2.556" transform="translate(6.825 3.317)" fill="none" stroke="#fff" stroke-linecap="round" stroke-linejoin="round" stroke-width="2"/>
      <line id="Line_2" data-name="Line 2" x2="16.205" transform="translate(0 23.732)" fill="none" stroke="#fff" stroke-linecap="round" stroke-linejoin="round" stroke-width="2"/>
    </g>
    <g id="Group_54" data-name="Group 54" transform="translate(-1136.506 -2042.703)">
      <path id="Path_45" data-name="Path 45" d="M-1121.776-2038.856h-6.62v-3.173l-7.751,5.231,7.751,5.231v-3.173h5.112" transform="translate(1136.148 2042.029)" fill="none" stroke="#fff" stroke-linecap="round" stroke-linejoin="round" stroke-width="2"/>
      <line id="Line_3" data-name="Line 3" x2="0.99" transform="translate(15.589 7.289)" fill="none" stroke="#fff" stroke-linecap="round" stroke-linejoin="round" stroke-width="2"/>
    </g>
  </g>
</svg>
