<svg xmlns="http://www.w3.org/2000/svg" width="288.014" height="130.151" viewBox="0 0 288.014 130.151">
  <defs>
    <style>
      .cls-1 {
        fill: #b3b3b3;
      }
    </style>
  </defs>
  <g id="Group_99" data-name="Group 99" transform="translate(1836.047 384.167)">
    <g id="Group_96" data-name="Group 96">
      <g id="Group_91" data-name="Group 91">
        <g id="Group_90" data-name="Group 90">
          <path id="Path_57" data-name="Path 57" class="cls-1" d="M-1835.048-254.016a1,1,0,0,1-.47-.118,1,1,0,0,1-.412-1.352s.33-.62,1.012-1.771a1,1,0,0,1,1.37-.352,1,1,0,0,1,.351,1.37c-.645,1.091-.962,1.682-.968,1.694A1,1,0,0,1-1835.048-254.016Z"/>
        </g>
      </g>
      <g id="Group_93" data-name="Group 93">
        <g id="Group_92" data-name="Group 92">
          <path id="Path_58" data-name="Path 58" class="cls-1" d="M-1828.539-264.237a1,1,0,0,1-.572-.181,1,1,0,0,1-.246-1.393q1.094-1.561,2.378-3.316a1,1,0,0,1,1.4-.215,1,1,0,0,1,.214,1.4q-1.271,1.732-2.351,3.28A1,1,0,0,1-1828.539-264.237Zm8.573-11.317a1,1,0,0,1-.631-.224,1,1,0,0,1-.144-1.407q1.246-1.531,2.6-3.135a1,1,0,0,1,1.41-.117,1,1,0,0,1,.117,1.409q-1.344,1.589-2.578,3.106A1,1,0,0,1-1819.966-275.554Zm9.306-10.715a.992.992,0,0,1-.678-.265,1,1,0,0,1-.056-1.413q1.353-1.466,2.789-2.967a1,1,0,0,1,1.414-.031,1,1,0,0,1,.031,1.414q-1.423,1.486-2.765,2.941A1,1,0,0,1-1810.66-286.269Zm9.932-10.134a1,1,0,0,1-.72-.306,1,1,0,0,1,.027-1.414q1.443-1.391,2.953-2.8a1,1,0,0,1,1.414.049,1,1,0,0,1-.05,1.414q-1.5,1.4-2.931,2.776A1,1,0,0,1-1800.728-296.4Zm10.492-9.55a1,1,0,0,1-.759-.347,1,1,0,0,1,.106-1.41q1.523-1.312,3.1-2.631a1,1,0,0,1,1.409.128,1,1,0,0,1-.128,1.408q-1.569,1.308-3.08,2.61A.994.994,0,0,1-1790.236-305.953Zm11-8.956a1,1,0,0,1-.793-.389,1,1,0,0,1,.182-1.4q1.594-1.23,3.242-2.458a1,1,0,0,1,1.4.2,1,1,0,0,1-.2,1.4q-1.633,1.218-3.216,2.438A1,1,0,0,1-1779.236-314.909Zm11.463-8.352a1,1,0,0,1-.825-.432,1,1,0,0,1,.257-1.391q1.66-1.144,3.367-2.283a1,1,0,0,1,1.387.278,1,1,0,0,1-.278,1.386q-1.694,1.129-3.342,2.266A1,1,0,0,1-1767.773-323.261Zm11.885-7.737a1,1,0,0,1-.853-.476,1,1,0,0,1,.329-1.376q1.719-1.056,3.48-2.1a1,1,0,0,1,1.37.348,1,1,0,0,1-.348,1.371q-1.749,1.04-3.455,2.088A.989.989,0,0,1-1755.888-331Zm12.268-7.113a1,1,0,0,1-.879-.521,1,1,0,0,1,.4-1.357q1.773-.967,3.583-1.924a1,1,0,0,1,1.351.418,1,1,0,0,1-.417,1.351q-1.8.95-3.558,1.91A.984.984,0,0,1-1743.62-338.111Zm12.61-6.485a1,1,0,0,1-.9-.565,1,1,0,0,1,.466-1.336q1.818-.879,3.673-1.743a1,1,0,0,1,1.329.485,1,1,0,0,1-.485,1.329q-1.841.856-3.647,1.73A.993.993,0,0,1-1731.01-344.6Zm12.913-5.855a1,1,0,0,1-.921-.61,1,1,0,0,1,.53-1.311q1.86-.789,3.754-1.562a1,1,0,0,1,1.3.548,1,1,0,0,1-.548,1.3q-1.88.77-3.728,1.552A.993.993,0,0,1-1718.1-350.451Zm13.18-5.227a1,1,0,0,1-.938-.654,1,1,0,0,1,.591-1.285q1.9-.7,3.822-1.383a1,1,0,0,1,1.276.608,1,1,0,0,1-.608,1.277q-1.914.678-3.8,1.374A.978.978,0,0,1-1704.917-355.678Zm13.409-4.6a1,1,0,0,1-.953-.7,1,1,0,0,1,.65-1.257q1.926-.612,3.881-1.206a1,1,0,0,1,1.247.665,1,1,0,0,1-.665,1.248q-1.944.591-3.857,1.2A1,1,0,0,1-1691.508-360.283Zm13.6-3.993a1,1,0,0,1-.965-.74,1,1,0,0,1,.705-1.226q1.951-.526,3.93-1.033a1,1,0,0,1,1.217.72,1,1,0,0,1-.72,1.217q-1.966.506-3.907,1.027A.968.968,0,0,1-1677.9-364.276Zm13.764-3.394a1,1,0,0,1-.975-.782,1,1,0,0,1,.758-1.194q1.973-.441,3.97-.864a1,1,0,0,1,1.186.771,1,1,0,0,1-.772,1.186q-1.986.42-3.947.859A1.036,1.036,0,0,1-1664.14-367.67Zm13.9-2.81a1,1,0,0,1-.983-.822,1,1,0,0,1,.806-1.162q1.989-.36,4-.7a1,1,0,0,1,1.152.819,1,1,0,0,1-.819,1.153q-2,.337-3.98.7A1,1,0,0,1-1650.243-370.48Zm14-2.244a1,1,0,0,1-.989-.861,1,1,0,0,1,.852-1.129q2-.281,4.026-.542a1,1,0,0,1,1.12.864,1,1,0,0,1-.864,1.12q-2.015.26-4.005.539A1.106,1.106,0,0,1-1636.245-372.724Zm14.076-1.7a1,1,0,0,1-.994-.9,1,1,0,0,1,.894-1.1q2.012-.2,4.043-.389a1,1,0,0,1,1.087.9,1,1,0,0,1-.9,1.087q-2.022.184-4.022.387A.9.9,0,0,1-1622.169-374.422Zm14.129-1.173a1,1,0,0,1-1-.935,1,1,0,0,1,.934-1.063q2.016-.131,4.054-.242a1.006,1.006,0,0,1,1.053.944,1,1,0,0,1-.943,1.053q-2.028.111-4.035.241C-1608-375.6-1608.018-375.6-1608.04-375.6Zm46.574-.429h-.045q-2.028-.089-4.039-.159a1,1,0,0,1-.965-1.034,1.016,1.016,0,0,1,1.034-.965q2.02.071,4.057.16a1,1,0,0,1,.956,1.042A1,1,0,0,1-1561.466-376.024Zm-32.41-.241a1,1,0,0,1-1-.969,1,1,0,0,1,.969-1.03q2.021-.061,4.061-.1a1.022,1.022,0,0,1,1.02.98,1,1,0,0,1-.98,1.02q-2.029.041-4.04.1Zm18.233-.157h-.013q-2.031-.025-4.043-.032a1,1,0,0,1-1-1,1,1,0,0,1,1-1h0q2.021.008,4.061.032a1,1,0,0,1,.987,1.012A1,1,0,0,1-1575.643-376.422Z"/>
        </g>
      </g>
      <g id="Group_95" data-name="Group 95">
        <g id="Group_94" data-name="Group 94">
          <path id="Path_59" data-name="Path 59" class="cls-1" d="M-1549.314-375.338c-.023,0-.047,0-.07,0l-1.995-.134a1,1,0,0,1-.934-1.062,1,1,0,0,1,1.063-.934l2,.135a1,1,0,0,1,.929,1.067A1,1,0,0,1-1549.314-375.338Z"/>
        </g>
      </g>
    </g>
    <g id="Group_98" data-name="Group 98">
      <g id="Group_97" data-name="Group 97">
        <path id="Path_60" data-name="Path 60" class="cls-1" d="M-1557.871-370.315a1,1,0,0,1-.865-.5,1,1,0,0,1,.361-1.367l7.631-4.441-6.664-5.793a1,1,0,0,1-.1-1.411,1,1,0,0,1,1.411-.1l7.718,6.709a1,1,0,0,1,.339.849,1,1,0,0,1-.493.77l-8.838,5.143A.985.985,0,0,1-1557.871-370.315Z"/>
      </g>
    </g>
  </g>
</svg>
