<svg xmlns="http://www.w3.org/2000/svg" width="218.83" height="123.495" viewBox="0 0 218.83 123.495">
  <defs>
    <style>
      .cls-1 {
        fill: #b3b3b3;
      }
    </style>
  </defs>
  <g id="Group_108" data-name="Group 108" transform="translate(1056.181 -163.594)">
    <g id="Group_106" data-name="Group 106">
      <path id="Path_65" data-name="Path 65" class="cls-1" d="M-1044.847,281.165h-.468a1,1,0,0,1-1-1,1,1,0,0,1,1-1h.468a1,1,0,0,1,1,1A1,1,0,0,1-1044.847,281.165Zm10-.144a1,1,0,0,1-1-.973,1,1,0,0,1,.972-1.027q2.005-.057,3.986-.133a1,1,0,0,1,1.038.96,1,1,0,0,1-.96,1.038q-1.992.078-4.008.135Zm13.977-.667a1,1,0,0,1-1-.932,1,1,0,0,1,.93-1.066q2-.133,3.976-.293a1,1,0,0,1,1.076.916,1,1,0,0,1-.917,1.078q-1.986.157-4,.3Zm13.933-1.246a1,1,0,0,1-.993-.889,1,1,0,0,1,.883-1.1q2-.221,3.959-.466a1,1,0,0,1,1.115.87,1,1,0,0,1-.869,1.115q-1.976.246-3.983.47C-1006.866,279.106-1006.9,279.108-1006.94,279.108Zm13.864-1.867a1,1,0,0,1-.987-.843,1,1,0,0,1,.831-1.144q1.981-.316,3.931-.652a1,1,0,0,1,1.156.814,1,1,0,0,1-.815,1.156q-1.963.341-3.957.657A1.085,1.085,0,0,1-993.076,277.241Zm13.756-2.533a1,1,0,0,1-.977-.793,1,1,0,0,1,.772-1.186q1.962-.414,3.892-.85a1,1,0,0,1,1.2.755,1,1,0,0,1-.754,1.2q-1.942.439-3.92.857A1.058,1.058,0,0,1-979.32,274.708Zm13.607-3.245a1,1,0,0,1-.965-.741,1,1,0,0,1,.707-1.225q1.937-.521,3.838-1.06a1,1,0,0,1,1.236.687,1,1,0,0,1-.688,1.236q-1.915.546-3.869,1.069A1,1,0,0,1-965.713,271.463Zm13.4-4a1,1,0,0,1-.949-.686,1,1,0,0,1,.635-1.263q1.905-.63,3.77-1.283a1,1,0,0,1,1.273.615,1,1,0,0,1-.613,1.274q-1.881.657-3.8,1.292A1.011,1.011,0,0,1-952.31,267.463Zm13.141-4.792a1,1,0,0,1-.929-.628,1,1,0,0,1,.556-1.3q1.863-.747,3.682-1.514a1,1,0,0,1,1.31.533,1,1,0,0,1-.533,1.31q-1.836.774-3.714,1.527A1,1,0,0,1-939.169,262.671Zm12.81-5.618a1,1,0,0,1-.9-.568,1,1,0,0,1,.47-1.334q1.809-.868,3.572-1.754a1,1,0,0,1,1.343.445,1,1,0,0,1-.445,1.343q-1.779.894-3.606,1.769A.991.991,0,0,1-926.359,257.053Zm12.4-6.47a1,1,0,0,1-.871-.507,1,1,0,0,1,.377-1.363q1.744-.988,3.44-2a1,1,0,0,1,1.371.348,1,1,0,0,1-.349,1.371q-1.713,1.017-3.476,2.017A1,1,0,0,1-913.957,250.583Zm11.913-7.333a1,1,0,0,1-.833-.446,1,1,0,0,1,.278-1.386q1.669-1.111,3.285-2.241a1,1,0,0,1,1.392.248,1,1,0,0,1-.247,1.392q-1.633,1.14-3.322,2.265A.99.99,0,0,1-902.044,243.25Zm11.341-8.193a1,1,0,0,1-.788-.384,1,1,0,0,1,.172-1.4q1.581-1.237,3.106-2.484a1,1,0,0,1,1.407.142,1,1,0,0,1-.142,1.407q-1.54,1.259-3.14,2.511A1,1,0,0,1-890.7,235.057Zm10.681-9.039a1,1,0,0,1-.738-.326,1,1,0,0,1,.063-1.413q1.484-1.356,2.9-2.717a1,1,0,0,1,1.413.029,1,1,0,0,1-.03,1.414q-1.434,1.377-2.936,2.751A1,1,0,0,1-880.022,226.018Zm9.938-9.857a1,1,0,0,1-.682-.267,1,1,0,0,1-.05-1.415q1.372-1.475,2.674-2.942a1,1,0,0,1,1.412-.084,1,1,0,0,1,.084,1.412q-1.317,1.483-2.707,2.978A1,1,0,0,1-870.084,216.161Zm9.108-10.634a1,1,0,0,1-.619-.214,1,1,0,0,1-.166-1.4q1.252-1.589,2.423-3.153a1,1,0,0,1,1.4-.2,1,1,0,0,1,.2,1.4q-1.184,1.581-2.452,3.192A1,1,0,0,1-860.976,205.527Zm8.19-11.362a.992.992,0,0,1-.548-.164,1,1,0,0,1-.287-1.386q1.123-1.706,2.143-3.35a1,1,0,0,1,1.377-.322,1,1,0,0,1,.321,1.377q-1.033,1.665-2.17,3.395A1,1,0,0,1-852.786,194.165Zm7.159-12.046A1,1,0,0,1-846.1,182a1,1,0,0,1-.412-1.354c.657-1.232,1.262-2.414,1.819-3.537a1,1,0,0,1,1.34-.451A1,1,0,0,1-842.9,178q-.848,1.709-1.847,3.59A1,1,0,0,1-845.627,182.119Zm5.914-12.723a.989.989,0,0,1-.363-.068,1,1,0,0,1-.568-1.3c.922-2.36,1.331-3.714,1.335-3.726a1,1,0,0,1,1.245-.671,1,1,0,0,1,.671,1.245c-.017.058-.433,1.434-1.388,3.881A1,1,0,0,1-839.713,169.4Z"/>
    </g>
    <g id="Group_107" data-name="Group 107">
      <path id="Path_66" data-name="Path 66" class="cls-1" d="M-1047.507,287.088a.992.992,0,0,1-.66-.25l-7.675-6.759a1,1,0,0,1-.334-.85,1,1,0,0,1,.5-.767l8.871-5.086a1,1,0,0,1,1.366.37,1,1,0,0,1-.371,1.364l-7.659,4.392,6.626,5.836a1,1,0,0,1,.089,1.411A1,1,0,0,1-1047.507,287.088Z"/>
    </g>
  </g>
</svg>
