<svg xmlns="http://www.w3.org/2000/svg" width="61.953" height="123.094" viewBox="0 0 61.953 123.094">
  <defs>
    <style>
      .cls-1 {
        fill: #b3b3b3;
      }
    </style>
  </defs>
  <g id="Group_105" data-name="Group 105" transform="translate(1078.742 126.188)">
    <g id="Group_103" data-name="Group 103">
      <path id="Path_63" data-name="Path 63" class="cls-1" d="M-1025.335-9.641a1,1,0,0,1-.658-.247q-1.528-1.334-3-2.681a1,1,0,0,1-.062-1.413,1,1,0,0,1,1.413-.062q1.453,1.331,2.964,2.649a1,1,0,0,1,.095,1.412A1,1,0,0,1-1025.335-9.641Zm-10.14-9.64a.994.994,0,0,1-.719-.306q-1.409-1.461-2.757-2.931a1,1,0,0,1,.061-1.413,1,1,0,0,1,1.413.061q1.332,1.452,2.722,2.9a1,1,0,0,1-.026,1.414A1,1,0,0,1-1035.475-19.281Zm-9.252-10.493a1,1,0,0,1-.78-.373q-1.272-1.583-2.482-3.169a1,1,0,0,1,.19-1.4,1,1,0,0,1,1.4.19q1.192,1.564,2.45,3.127A1,1,0,0,1-1044.1-30,.992.992,0,0,1-1044.727-29.774Zm-8.26-11.294a1,1,0,0,1-.835-.448q-1.122-1.694-2.178-3.385a1,1,0,0,1,.318-1.378,1,1,0,0,1,1.378.319q1.042,1.667,2.149,3.34a1,1,0,0,1-.281,1.386A1,1,0,0,1-1052.987-41.068Zm-7.176-12.013a1,1,0,0,1-.882-.528q-.961-1.794-1.854-3.575a1,1,0,0,1,.446-1.342,1,1,0,0,1,1.342.445q.882,1.758,1.828,3.528a1,1,0,0,1-.409,1.353A.989.989,0,0,1-1060.163-53.081Zm-6.023-12.633a1,1,0,0,1-.922-.613q-.79-1.881-1.511-3.733a1,1,0,0,1,.568-1.294,1,1,0,0,1,1.3.568q.712,1.829,1.492,3.683a1,1,0,0,1-.534,1.31A1.009,1.009,0,0,1-1066.186-65.714Zm-4.82-13.142a1,1,0,0,1-.953-.7q-.617-1.953-1.16-3.858a1,1,0,0,1,.687-1.236,1,1,0,0,1,1.236.687q.537,1.878,1.144,3.806a1,1,0,0,1-.654,1.254A.978.978,0,0,1-1071.006-78.856Zm-3.583-13.535a1,1,0,0,1-.976-.79q-.435-2.021-.8-3.949a1,1,0,0,1,.8-1.167,1,1,0,0,1,1.167.8q.357,1.9.785,3.9a1,1,0,0,1-.768,1.187A.953.953,0,0,1-1074.589-92.391Zm-2.294-13.816a1,1,0,0,1-.992-.884q-.246-2.109-.407-4.013a1,1,0,0,1,.909-1.082.992.992,0,0,1,1.083.91q.162,1.874.4,3.954a1,1,0,0,1-.878,1.109A.919.919,0,0,1-1076.883-106.207Zm-.859-13.984h0a1,1,0,0,1-1-1c0-2.589.111-4.016.115-4.076a1.008,1.008,0,0,1,1.074-.919,1,1,0,0,1,.92,1.074c0,.014-.107,1.42-.109,3.922A1,1,0,0,1-1077.742-120.191Z"/>
    </g>
    <g id="Group_104" data-name="Group 104">
      <path id="Path_64" data-name="Path 64" class="cls-1" d="M-1017.789-3.094l-.056,0-10.21-.571A1,1,0,0,1-1029-4.722a1,1,0,0,1,1.055-.943l8.815.494-2.373-8.5a1,1,0,0,1,.694-1.232,1,1,0,0,1,1.232.694l2.749,9.85a1,1,0,0,1-.184.895A1,1,0,0,1-1017.789-3.094Z"/>
    </g>
  </g>
</svg>
