<svg xmlns="http://www.w3.org/2000/svg" width="202.409" height="166.763" viewBox="0 0 202.409 166.763">
  <defs>
    <style>
      .cls-1 {
        fill: #b3b3b3;
      }
    </style>
  </defs>
  <g id="Group_102" data-name="Group 102" transform="translate(1133.055 442.439)">
    <g id="Group_100" data-name="Group 100">
      <path id="Path_61" data-name="Path 61" class="cls-1" d="M-937.072-285.793l-.454-1.948.211.977-.934-.357c0-.007.311-.837.785-2.4a1,1,0,0,1,1.248-.666,1,1,0,0,1,.665,1.248C-936.443-286-936.46-285.947-937.072-285.793Zm2.979-12.142a1.037,1.037,0,0,1-.2-.019,1,1,0,0,1-.783-1.178c.246-1.223.489-2.526.72-3.9a1,1,0,0,1,1.151-.82,1,1,0,0,1,.821,1.151q-.352,2.1-.731,3.968A1,1,0,0,1-934.093-297.935Zm1.991-13.856c-.029,0-.059,0-.088,0a1,1,0,0,1-.909-1.084q.171-1.928.286-3.959a1,1,0,0,1,1.056-.942,1,1,0,0,1,.942,1.055q-.117,2.063-.291,4.021A1,1,0,0,1-932.1-311.791Zm.455-13.987a1,1,0,0,1-1-.977q-.047-1.953-.157-3.965a1,1,0,0,1,.943-1.054,1.008,1.008,0,0,1,1.054.942q.114,2.045.159,4.03a1,1,0,0,1-.976,1.023Zm-1.134-13.949a1,1,0,0,1-.989-.859c-.185-1.31-.394-2.627-.622-3.917a1,1,0,0,1,.811-1.159,1,1,0,0,1,1.159.811c.232,1.312.444,2.653.633,3.984a1,1,0,0,1-.85,1.131A.978.978,0,0,1-932.781-339.727Zm-2.8-13.708a1,1,0,0,1-.964-.74c-.345-1.274-.715-2.555-1.1-3.807a1,1,0,0,1,.661-1.251,1,1,0,0,1,1.251.66c.393,1.275.771,2.579,1.121,3.877a1,1,0,0,1-.7,1.226A1.037,1.037,0,0,1-935.579-353.435Zm-4.5-13.247A1,1,0,0,1-941-367.3c-.5-1.221-1.036-2.443-1.58-3.634a1,1,0,0,1,.495-1.325,1,1,0,0,1,1.325.494c.554,1.213,1.1,2.458,1.609,3.7a1,1,0,0,1-.543,1.306A1.008,1.008,0,0,1-940.075-366.682Zm-6.159-12.558a1,1,0,0,1-.869-.5c-.652-1.138-1.335-2.283-2.031-3.4a1,1,0,0,1,.321-1.377,1,1,0,0,1,1.377.32c.708,1.14,1.4,2.306,2.069,3.465a1,1,0,0,1-.371,1.364A.993.993,0,0,1-946.234-379.24Zm-7.7-11.676a1,1,0,0,1-.8-.4c-.782-1.041-1.6-2.093-2.436-3.126a1,1,0,0,1,.149-1.407,1,1,0,0,1,1.406.15c.85,1.052,1.684,2.122,2.48,3.181a1,1,0,0,1-.2,1.4A.991.991,0,0,1-953.936-390.916Zm-9.054-10.663a1,1,0,0,1-.723-.31q-1.355-1.419-2.783-2.827a1,1,0,0,1-.01-1.414,1,1,0,0,1,1.414-.011q1.45,1.43,2.826,2.872a1,1,0,0,1-.034,1.414A.994.994,0,0,1-962.99-401.579Zm-10.183-9.59a1,1,0,0,1-.646-.237q-.767-.649-1.549-1.295-.759-.624-1.516-1.231a1,1,0,0,1-.156-1.406,1,1,0,0,1,1.406-.156q.768.616,1.537,1.249.795.654,1.571,1.312a1,1,0,0,1,.116,1.41A1,1,0,0,1-973.173-411.169Zm-158.881-1.3a1,1,0,0,1-.791-.386,1,1,0,0,1,.176-1.4c.047-.037,1.186-.92,3.319-2.375a1,1,0,0,1,1.39.263,1,1,0,0,1-.263,1.39c-2.075,1.415-3.207,2.292-3.218,2.3A1,1,0,0,1-1132.054-412.473Zm147.775-7.209a.994.994,0,0,1-.567-.177q-1.65-1.137-3.3-2.2a1,1,0,0,1-.3-1.382,1,1,0,0,1,1.382-.3q1.676,1.082,3.352,2.236a1,1,0,0,1,.256,1.39A1,1,0,0,1-984.279-419.682Zm-136.024-.45a1,1,0,0,1-.866-.5,1,1,0,0,1,.363-1.368q1.655-.959,3.512-1.977a1,1,0,0,1,1.357.4,1,1,0,0,1-.4,1.357q-1.833,1-3.467,1.953A1,1,0,0,1-1120.3-420.132Zm12.415-6.492a1,1,0,0,1-.905-.576,1,1,0,0,1,.48-1.329q1.781-.834,3.668-1.665a1,1,0,0,1,1.318.514,1,1,0,0,1-.514,1.317q-1.863.819-3.623,1.644A.987.987,0,0,1-1107.888-426.624Zm111.674-.355a1,1,0,0,1-.472-.119c-1.168-.627-2.355-1.237-3.525-1.816a1,1,0,0,1-.454-1.339,1,1,0,0,1,1.34-.454c1.19.588,2.4,1.209,3.584,1.846a1,1,0,0,1,.409,1.354A1,1,0,0,1-996.214-426.979Zm-98.745-5.029a1,1,0,0,1-.94-.658,1,1,0,0,1,.6-1.282q1.865-.68,3.8-1.331a1,1,0,0,1,1.266.63,1,1,0,0,1-.63,1.266q-1.913.641-3.753,1.314A1,1,0,0,1-1094.959-432.008Zm86.046-.839a1.015,1.015,0,0,1-.363-.069c-1.225-.479-2.475-.941-3.717-1.376a1,1,0,0,1-.613-1.274,1,1,0,0,1,1.273-.614c1.265.443,2.538.914,3.785,1.4a1,1,0,0,1,.568,1.295A1,1,0,0,1-1008.913-432.847Zm-72.684-3.34a1,1,0,0,1-.967-.749,1,1,0,0,1,.715-1.219q1.93-.5,3.913-.961a1,1,0,0,1,1.2.75,1,1,0,0,1-.75,1.2q-1.954.45-3.859.947A1,1,0,0,1-1081.6-436.187Zm59.362-.92a.978.978,0,0,1-.244-.031c-1.276-.32-2.575-.621-3.861-.895a1,1,0,0,1-.77-1.186,1,1,0,0,1,1.186-.77c1.31.279,2.632.586,3.932.912a1,1,0,0,1,.726,1.213A1,1,0,0,1-1022.235-437.107Zm-45.656-1.914a1,1,0,0,1-.987-.85,1,1,0,0,1,.838-1.139q1.979-.3,3.994-.545a1,1,0,0,1,1.113.872,1,1,0,0,1-.873,1.113q-1.984.24-3.933.537A.973.973,0,0,1-1067.891-439.021Zm31.9-.624q-.06,0-.12-.006c-1.309-.157-2.636-.291-3.944-.4a1,1,0,0,1-.913-1.08.992.992,0,0,1,1.079-.913c1.331.11,2.682.247,4.015.406a1,1,0,0,1,.875,1.112A1,1,0,0,1-1035.992-439.645Zm-17.968-.71a1,1,0,0,1-1-.962,1,1,0,0,1,.961-1.037c1.348-.051,2.705-.08,4.033-.085h0a1,1,0,0,1,1,1,1,1,0,0,1-1,1c-1.306.005-2.64.033-3.965.084Z"/>
    </g>
    <g id="Group_101" data-name="Group 101">
      <path id="Path_62" data-name="Path 62" class="cls-1" d="M-941.942-275.676a1,1,0,0,1-.441-.1,1,1,0,0,1-.545-.734L-944.6-286.6a1,1,0,0,1,.822-1.15,1,1,0,0,1,1.151.822l1.447,8.71,7.778-4.176a1,1,0,0,1,1.354.408,1,1,0,0,1-.407,1.354l-9.01,4.837A.988.988,0,0,1-941.942-275.676Z"/>
    </g>
  </g>
</svg>
