<svg xmlns="http://www.w3.org/2000/svg" width="347.882" height="114.224" viewBox="0 0 347.882 114.224">
  <defs>
    <style>
      .cls-1 {
        fill: #b3b3b3;
      }
    </style>
  </defs>
  <g id="Group_111" data-name="Group 111" transform="translate(1825.048 -190.196)">
    <g id="Group_109" data-name="Group 109">
      <path id="Path_67" data-name="Path 67" class="cls-1" d="M-1534.417,304.42c-1.225,0-2.454,0-3.7-.01a1,1,0,0,1-.994-1.006,1,1,0,0,1,1-.994h.005q1.874.01,3.7.01h.294a1,1,0,0,1,1,1,1,1,0,0,1-1,1h-.312Zm10.313-.079a1,1,0,0,1-1-.985,1,1,0,0,1,.984-1.015q2.034-.033,3.995-.074a1.023,1.023,0,0,1,1.021.978,1,1,0,0,1-.979,1.022q-1.967.042-4.005.074Zm-24.014-.061h-.021q-1.984-.041-4.007-.093a1,1,0,0,1-.974-1.027.994.994,0,0,1,1.026-.973q2.017.052,4,.093a1,1,0,0,1,.979,1.021A1,1,0,0,1-1548.118,304.28Zm38.012-.3a1,1,0,0,1-1-.963,1,1,0,0,1,.962-1.036q2.052-.076,3.992-.162a.991.991,0,0,1,1.043.956,1,1,0,0,1-.956,1.042q-1.945.086-4,.162Zm-52.018-.131h-.042q-1.987-.082-4-.179a1,1,0,0,1-.952-1.047,1,1,0,0,1,1.047-.951q2.011.1,3.992.179a1,1,0,0,1,.958,1.04A1,1,0,0,1-1562.124,303.845Zm66.005-.547a1,1,0,0,1-1-.94,1,1,0,0,1,.937-1.058q2.106-.127,3.987-.256a1.014,1.014,0,0,1,1.065.931,1,1,0,0,1-.931,1.065q-1.885.127-4,.256Zm-80-.188-.064,0q-1.988-.126-4-.265a1,1,0,0,1-.928-1.068,1,1,0,0,1,1.066-.928q2.006.138,3.988.265a1,1,0,0,1,.934,1.062A1,1,0,0,1-1576.115,303.11Zm93.963-.855a1,1,0,0,1-.995-.909,1,1,0,0,1,.9-1.087c2.58-.237,3.957-.394,3.964-.394a1,1,0,0,1,1.107.88,1,1,0,0,1-.88,1.107s-1.392.159-4.008.4C-1482.091,302.254-1482.122,302.255-1482.152,302.255Zm-107.934-.191-.087,0q-1.988-.172-3.992-.358a1,1,0,0,1-.9-1.089,1,1,0,0,1,1.089-.9q2,.186,3.978.357a1,1,0,0,1,.91,1.082A1,1,0,0,1-1590.086,302.064Zm-13.942-1.368a1.048,1.048,0,0,1-.111-.006q-1.984-.217-3.983-.453a1,1,0,0,1-.876-1.11,1,1,0,0,1,1.11-.876q1.99.234,3.968.451a1,1,0,0,1,.885,1.1A1,1,0,0,1-1604.028,300.7Zm-13.9-1.707a1.05,1.05,0,0,1-.136-.009q-1.98-.269-3.97-.552a1,1,0,0,1-.848-1.132,1,1,0,0,1,1.131-.849q1.982.285,3.956.551a1,1,0,0,1,.856,1.126A1,1,0,0,1-1617.932,298.989Zm-13.855-2.063a.983.983,0,0,1-.162-.013q-1.974-.322-3.954-.659a1,1,0,0,1-.818-1.153,1,1,0,0,1,1.154-.818q1.973.336,3.939.655a1,1,0,0,1,.826,1.149A1,1,0,0,1-1631.787,296.926Zm-13.793-2.441a1.117,1.117,0,0,1-.19-.017q-1.965-.378-3.933-.772a1,1,0,0,1-.785-1.176,1,1,0,0,1,1.176-.785q1.962.392,3.919.768a1,1,0,0,1,.794,1.171A1,1,0,0,1-1645.58,294.485Zm-13.715-2.84a.976.976,0,0,1-.219-.025q-1.953-.435-3.909-.891a1,1,0,0,1-.748-1.2,1,1,0,0,1,1.2-.747q1.947.453,3.892.887a1,1,0,0,1,.758,1.193A1,1,0,0,1-1659.3,291.645Zm-13.6-3.26a1.031,1.031,0,0,1-.25-.031q-1.935-.5-3.868-1.016a1,1,0,0,1-.708-1.224,1,1,0,0,1,1.224-.708q1.925.514,3.85,1.01a1,1,0,0,1,.72,1.218A1,1,0,0,1-1672.891,288.385Zm-13.477-3.714a1,1,0,0,1-.283-.041q-1.92-.566-3.837-1.152a1,1,0,0,1-.663-1.249,1,1,0,0,1,1.249-.664q1.906.585,3.817,1.147a1,1,0,0,1,.676,1.241A1,1,0,0,1-1686.368,284.671Zm-13.346-4.2a1.019,1.019,0,0,1-.319-.052q-1.9-.641-3.794-1.3a1,1,0,0,1-.616-1.273,1,1,0,0,1,1.273-.616q1.884.657,3.775,1.292a1,1,0,0,1,.629,1.266A1,1,0,0,1-1699.714,280.469Zm-13.181-4.726a.993.993,0,0,1-.357-.066q-1.875-.717-3.742-1.455a1,1,0,0,1-.562-1.3,1,1,0,0,1,1.3-.562q1.856.735,3.72,1.448a1,1,0,0,1,.577,1.291A1,1,0,0,1-1712.9,275.743Zm-12.975-5.285a.986.986,0,0,1-.4-.083q-1.844-.8-3.676-1.623a1,1,0,0,1-.5-1.322,1,1,0,0,1,1.322-.5q1.821.819,3.652,1.613a1,1,0,0,1,.519,1.314A1,1,0,0,1-1725.87,270.458Zm-12.721-5.879a1.008,1.008,0,0,1-.441-.1q-1.8-.888-3.593-1.8a1,1,0,0,1-.438-1.345,1,1,0,0,1,1.346-.436q1.778.906,3.569,1.788a1,1,0,0,1,.455,1.339A1,1,0,0,1-1738.591,264.579ZM-1751,258.068a1,1,0,0,1-.487-.127q-1.756-.981-3.495-1.989a1,1,0,0,1-.363-1.367,1,1,0,0,1,1.367-.363q1.725,1,3.466,1.973a1,1,0,0,1,.386,1.362A1,1,0,0,1-1751,258.068Zm-12.033-7.173a1,1,0,0,1-.536-.157q-1.7-1.077-3.372-2.183a1,1,0,0,1-.286-1.385,1,1,0,0,1,1.385-.285q1.665,1.1,3.346,2.166a1,1,0,0,1,.308,1.38A1,1,0,0,1-1763.033,250.9Zm-11.583-7.865a.994.994,0,0,1-.586-.19q-1.625-1.179-3.229-2.387a1,1,0,0,1-.2-1.4,1,1,0,0,1,1.4-.2q1.59,1.2,3.2,2.366a1,1,0,0,1,.223,1.4A1,1,0,0,1-1774.616,243.03Zm-11.049-8.572a1,1,0,0,1-.638-.23q-1.542-1.281-3.061-2.592a1,1,0,0,1-.1-1.41,1,1,0,0,1,1.411-.1q1.5,1.3,3.031,2.566a1,1,0,0,1,.13,1.409A1,1,0,0,1-1785.665,234.458Zm-10.43-9.287a1,1,0,0,1-.691-.277q-1.451-1.386-2.877-2.806a1,1,0,0,1,0-1.414,1,1,0,0,1,1.415,0q1.411,1.4,2.848,2.778a1,1,0,0,1,.032,1.413A1,1,0,0,1-1796.095,225.171Zm-9.755-10.023a1,1,0,0,1-.742-.329q-1.345-1.489-2.663-3.011a1,1,0,0,1,.1-1.411,1,1,0,0,1,1.41.1q1.3,1.506,2.635,2.979a1,1,0,0,1-.072,1.413A1,1,0,0,1-1805.85,215.148Zm-8.977-10.724a1,1,0,0,1-.791-.388q-1.228-1.587-2.425-3.207a1,1,0,0,1,.209-1.4,1,1,0,0,1,1.4.209q1.185,1.6,2.4,3.172a1,1,0,0,1-.179,1.4A1,1,0,0,1-1814.827,204.424Z"/>
    </g>
    <g id="Group_110" data-name="Group 110">
      <path id="Path_68" data-name="Path 68" class="cls-1" d="M-1824.046,202.335a1,1,0,0,1-.132-.009,1,1,0,0,1-.861-1.121l1.331-10.139a1,1,0,0,1,.521-.752.994.994,0,0,1,.914-.014l9.169,4.527a1,1,0,0,1,.454,1.339,1,1,0,0,1-1.34.454l-7.916-3.909-1.15,8.754A1,1,0,0,1-1824.046,202.335Z"/>
    </g>
  </g>
</svg>
