<svg xmlns="http://www.w3.org/2000/svg" xmlns:xlink="http://www.w3.org/1999/xlink" width="62.728" height="38.146" viewBox="0 0 62.728 38.146">
  <defs>
    <style>
      .cls-1 {
        fill: url(#linear-gradient);
      }
    </style>
    <linearGradient id="linear-gradient" x1="0.964" y1="0.07" x2="-0.044" y2="1" gradientUnits="objectBoundingBox">
      <stop offset="0" stop-color="#50f29c"/>
      <stop offset="1" stop-color="#00bddb"/>
    </linearGradient>
  </defs>
  <g id="Group_46" data-name="Group 46" transform="translate(1276.39 2055.02)">
    <path id="Path_32" data-name="Path 32" class="cls-1" d="M-1217.368-2037.035h-.043c-.016-.029-.019-.062-.038-.09l-5.378-7.935a1,1,0,0,0-.827-.439h-9.138v-8.521a1,1,0,0,0-1-1h-16.134a1,1,0,0,0-1,1,1,1,0,0,0,1,1h15.134v29.3h-17.488a5.854,5.854,0,0,0-5.757-4.848,5.853,5.853,0,0,0-5.757,4.848h-4.47a1,1,0,0,0-1,1,1,1,0,0,0,1,1h4.47a5.853,5.853,0,0,0,5.757,4.849,5.854,5.854,0,0,0,5.757-4.849h22.262a5.854,5.854,0,0,0,5.757,4.849,5.852,5.852,0,0,0,5.757-4.849h1.594a3.252,3.252,0,0,0,3.248-3.248v-8.358A3.71,3.71,0,0,0-1217.368-2037.035Zm-40.669,18.161a3.853,3.853,0,0,1-3.849-3.849,3.853,3.853,0,0,1,3.849-3.848,3.853,3.853,0,0,1,3.849,3.848A3.853,3.853,0,0,1-1258.037-2018.874Zm33.776,0a3.853,3.853,0,0,1-3.849-3.849,3.853,3.853,0,0,1,3.849-3.848,3.853,3.853,0,0,1,3.849,3.848A3.853,3.853,0,0,1-1224.261-2018.874Zm8.6-6.1a1.25,1.25,0,0,1-1.248,1.248h-1.594a5.853,5.853,0,0,0-5.757-4.848,5.854,5.854,0,0,0-5.757,4.848h-2.774V-2043.5h8.607l4.388,6.474a3.711,3.711,0,0,0-2.245.835,1.708,1.708,0,0,1-1.084.389h-7.043a1,1,0,0,0-1,1,1,1,0,0,0,1,1h7.043a3.711,3.711,0,0,0,2.355-.845,1.717,1.717,0,0,1,1.085-.389h2.318a1.708,1.708,0,0,1,1.706,1.706Z"/>
    <path id="Path_33" data-name="Path 33" class="cls-1" d="M-1267.029-2047.025h26.8a1,1,0,0,0,1-1,1,1,0,0,0-1-1h-26.8a1,1,0,0,0-1,1A1,1,0,0,0-1267.029-2047.025Z"/>
    <path id="Path_34" data-name="Path 34" class="cls-1" d="M-1250.161-2036.035a1,1,0,0,0-1-1h-20.365a1,1,0,0,0-1,1,1,1,0,0,0,1,1h20.365A1,1,0,0,0-1250.161-2036.035Z"/>
    <path id="Path_35" data-name="Path 35" class="cls-1" d="M-1265.349-2030.442a1,1,0,0,0-1-1h-4a1,1,0,0,0-1,1,1,1,0,0,0,1,1h4A1,1,0,0,0-1265.349-2030.442Z"/>
    <path id="Path_36" data-name="Path 36" class="cls-1" d="M-1241.961-2042.118a1,1,0,0,0-1-1h-17.1a1,1,0,0,0-1,1,1,1,0,0,0,1,1h17.1A1,1,0,0,0-1241.961-2042.118Z"/>
    <path id="Path_37" data-name="Path 37" class="cls-1" d="M-1265.178-2043.118a1,1,0,0,0-1,1,1,1,0,0,0,1,1h1.5a1,1,0,0,0,1-1,1,1,0,0,0-1-1Z"/>
    <path id="Path_38" data-name="Path 38" class="cls-1" d="M-1273.891-2031.442h-1.5a1,1,0,0,0-1,1,1,1,0,0,0,1,1h1.5a1,1,0,0,0,1-1A1,1,0,0,0-1273.891-2031.442Z"/>
    <path id="Path_39" data-name="Path 39" class="cls-1" d="M-1254.952-2053.02h1.5a1,1,0,0,0,1-1,1,1,0,0,0-1-1h-1.5a1,1,0,0,0-1,1A1,1,0,0,0-1254.952-2053.02Z"/>
    <path id="Path_40" data-name="Path 40" class="cls-1" d="M-1228.34-2032.36h-1.829a1,1,0,0,0-1,1,1,1,0,0,0,1,1h1.829a1,1,0,0,0,1-1A1,1,0,0,0-1228.34-2032.36Z"/>
    <path id="Path_41" data-name="Path 41" class="cls-1" d="M-1246.273-2025.55h8.795a1,1,0,0,0,1-1v-5.658a1,1,0,0,0-1-1,1,1,0,0,0-1,1v4.658h-7.795a1,1,0,0,0-1,1A1,1,0,0,0-1246.273-2025.55Z"/>
  </g>
</svg>
