<svg xmlns="http://www.w3.org/2000/svg" xmlns:xlink="http://www.w3.org/1999/xlink" width="41.616" height="47.076" viewBox="0 0 41.616 47.076">
  <defs>
    <style>
      .cls-1 {
        fill: url(#linear-gradient);
      }
    </style>
    <linearGradient id="linear-gradient" x1="0.5" x2="0.5" y2="1" gradientUnits="objectBoundingBox">
      <stop offset="0" stop-color="#50f29c"/>
      <stop offset="1" stop-color="#00bddb"/>
    </linearGradient>
  </defs>
  <g id="Group_47" data-name="Group 47" transform="translate(1201.198 2061.884)">
    <path id="Path_42" data-name="Path 42" class="cls-1" d="M-1159.582-2042.075a6.668,6.668,0,0,0-6.661-6.661,6.668,6.668,0,0,0-6.661,6.661,6.664,6.664,0,0,0,5.661,6.577v10.836a7.863,7.863,0,0,1-7.854,7.854h-3.6a7.863,7.863,0,0,1-7.855-7.854v-.906a3.233,3.233,0,0,0,2.241-3.066v-1.36a38.1,38.1,0,0,0,9.24-9.813,3.245,3.245,0,0,0-.572-4.043,17.788,17.788,0,0,0,1.611-9.5,8.2,8.2,0,0,0-5.786-6.785v-.753a1,1,0,0,0-1-1,1,1,0,0,0-1,1v2.791a1,1,0,0,0,1,1,.991.991,0,0,0,.982-.913,6.091,6.091,0,0,1,3.823,4.932,15.717,15.717,0,0,1-1.446,8.387,3.241,3.241,0,0,0-3.16,1.529,26.111,26.111,0,0,1-1.949,2.621c-4.315,1.691-8.933.342-9.982-.009a25.819,25.819,0,0,1-1.932-2.608,3.24,3.24,0,0,0-3.163-1.535,15.723,15.723,0,0,1-1.445-8.385,6.062,6.062,0,0,1,3.822-4.936.991.991,0,0,0,.983.917,1,1,0,0,0,1-1v-2.791a1,1,0,0,0-1-1,1,1,0,0,0-1,1v.753a8.2,8.2,0,0,0-5.787,6.785,17.807,17.807,0,0,0,1.612,9.494,3.217,3.217,0,0,0-.94,1.592,3.215,3.215,0,0,0,.369,2.453,38.049,38.049,0,0,0,9.238,9.813v1.36a3.233,3.233,0,0,0,2.241,3.066v.906a9.866,9.866,0,0,0,9.855,9.854h3.6a9.866,9.866,0,0,0,9.854-9.854V-2035.5A6.664,6.664,0,0,0-1159.582-2042.075Zm-25.469,4.221a31.674,31.674,0,0,1-2.5,2.186,31.616,31.616,0,0,1-2.562-2.246,18.644,18.644,0,0,0,2.845.224A16.464,16.464,0,0,0-1185.051-2037.854Zm-4.155,6.541a35.923,35.923,0,0,1-9.109-9.525,1.238,1.238,0,0,1-.142-.939,1.239,1.239,0,0,1,.565-.765,1.234,1.234,0,0,1,.636-.176,1.25,1.25,0,0,1,1.071.607,34.177,34.177,0,0,0,8.039,8.5,1,1,0,0,0,1.194,0,34.722,34.722,0,0,0,5.7-5.382l.016-.018a28.641,28.641,0,0,0,2.331-3.111,1.244,1.244,0,0,1,1.7-.421h0a1.24,1.24,0,0,1,.422,1.7,35.921,35.921,0,0,1-9.11,9.526,1,1,0,0,0-.416.811v1.868a1.242,1.242,0,0,1-1.241,1.24,1.242,1.242,0,0,1-1.241-1.24v-1.868A1,1,0,0,0-1189.206-2031.313Zm22.963-6.1a4.666,4.666,0,0,1-4.661-4.661,4.666,4.666,0,0,1,4.661-4.661,4.665,4.665,0,0,1,4.661,4.661A4.666,4.666,0,0,1-1166.243-2037.414Z"/>
    <path id="Path_43" data-name="Path 43" class="cls-1" d="M-1166.615-2045.641a3.2,3.2,0,0,0-3.194,3.194,1,1,0,0,0,1,1,1,1,0,0,0,1-1,1.2,1.2,0,0,1,1.194-1.194,1,1,0,0,0,1-1A1,1,0,0,0-1166.615-2045.641Z"/>
  </g>
</svg>
