<svg xmlns="http://www.w3.org/2000/svg" xmlns:xlink="http://www.w3.org/1999/xlink" width="43.532" height="47.916" viewBox="0 0 43.532 47.916">
  <defs>
    <style>
      .cls-1 {
        fill: url(#linear-gradient);
      }
    </style>
    <linearGradient id="linear-gradient" x1="2.051" y1="0.582" x2="-0.448" y2="1.286" gradientUnits="objectBoundingBox">
      <stop offset="0" stop-color="#50f29c"/>
      <stop offset="1" stop-color="#00bddb"/>
    </linearGradient>
  </defs>
  <g id="Group_45" data-name="Group 45" transform="translate(-866 -827)">
    <g id="Group_44" data-name="Group 44" transform="translate(2197.626 2889.599)">
      <path id="Path_27" data-name="Path 27" class="cls-1" d="M-1321.585-2049.438a4.819,4.819,0,0,0,4.814-4.814v-2.826a4.82,4.82,0,0,0-4.814-4.814,4.82,4.82,0,0,0-4.814,4.814v2.826A4.819,4.819,0,0,0-1321.585-2049.438Zm-2.814-7.64a2.818,2.818,0,0,1,2.814-2.814,2.818,2.818,0,0,1,2.814,2.814v2.826a2.817,2.817,0,0,1-2.814,2.814,2.817,2.817,0,0,1-2.814-2.814Z"/>
      <path id="Path_28" data-name="Path 28" class="cls-1" d="M-1306.892-2032.224h-3.944v-10.019a5.075,5.075,0,0,0-1.6-3.807c-2.776-2.654-8.273-2.508-8.79-2.492-.5-.016-6.012-.165-8.792,2.492a5.072,5.072,0,0,0-1.6,3.807v7.613a5.19,5.19,0,0,0,4.183,5.083v13.864a1,1,0,0,0,1,1,1,1,0,0,0,1-1v-25.5a1,1,0,0,0-1-1,1,1,0,0,0-1,1v9.561a3.176,3.176,0,0,1-2.183-3.007v-7.613a3.1,3.1,0,0,1,.983-2.359c2.232-2.137,7.318-1.942,7.367-1.94.016,0,.03-.007.046-.007s.028.007.043.007c1.423-.064,5.5.159,7.365,1.938a3.1,3.1,0,0,1,.986,2.361v10.019h-2.185v-8.96a1,1,0,0,0-1-1,1,1,0,0,0-1,1v8.96h-1.173a1,1,0,0,0-1,1v9.254a1,1,0,0,0,1,1h1.173v5.287a1,1,0,0,0,1,1,1,1,0,0,0,1-1v-5.287h8.129a1,1,0,0,0,1-1v-9.254A1,1,0,0,0-1306.892-2032.224Zm-1,9.254h-9.3v-7.254h9.3Z"/>
      <path id="Path_29" data-name="Path 29" class="cls-1" d="M-1321.231-2032.224a1,1,0,0,0-1,1v15.541a1,1,0,0,0,1,1,1,1,0,0,0,1-1v-15.541A1,1,0,0,0-1321.231-2032.224Z"/>
      <path id="Path_30" data-name="Path 30" class="cls-1" d="M-1302.4-2042.858a4.751,4.751,0,0,0,3.947-3.945,4.722,4.722,0,0,0-1.333-4.1,4.718,4.718,0,0,0-4.1-1.333,4.752,4.752,0,0,0-3.945,3.946,4.726,4.726,0,0,0,1.333,4.1,4.705,4.705,0,0,0,3.352,1.391A4.841,4.841,0,0,0-1302.4-2042.858Zm-2.685-2.747a2.748,2.748,0,0,1-.771-2.384,2.775,2.775,0,0,1,2.272-2.273,2.988,2.988,0,0,1,.44-.033,2.731,2.731,0,0,1,1.944.8,2.749,2.749,0,0,1,.771,2.385,2.774,2.774,0,0,1-2.273,2.272h0A2.746,2.746,0,0,1-1305.087-2045.6Z"/>
      <path id="Path_31" data-name="Path 31" class="cls-1" d="M-1289.094-2050.915h-3.115a11.247,11.247,0,0,0-.824-1.984l2.2-2.2a1,1,0,0,0,0-1.414l-3.347-3.347a1,1,0,0,0-1.414,0l-2.2,2.2a11.286,11.286,0,0,0-1.984-.824v-3.115a1,1,0,0,0-1-1h-4.733a1,1,0,0,0-1,1v3.115a11.282,11.282,0,0,0-1.984.824l-2.2-2.2a1,1,0,0,0-1.414,0l-3.347,3.347a1,1,0,0,0,0,1.414l2.2,2.2a11.29,11.29,0,0,0-.824,1.984h-3.115a1,1,0,0,0-1,1,1,1,0,0,0,1,1h3.881a1,1,0,0,0,.974-.773,9.355,9.355,0,0,1,1.181-2.847,1,1,0,0,0-.141-1.236l-2.039-2.039,1.933-1.933,2.038,2.039a1,1,0,0,0,1.237.141,9.359,9.359,0,0,1,2.846-1.181,1,1,0,0,0,.774-.974v-2.881h2.733v2.881a1,1,0,0,0,.774.974,9.361,9.361,0,0,1,2.846,1.181,1,1,0,0,0,1.237-.141l2.038-2.039,1.933,1.933-2.039,2.039a1,1,0,0,0-.141,1.236,9.368,9.368,0,0,1,1.181,2.846,1,1,0,0,0,.974.774h2.881v2.733h-2.881a1,1,0,0,0-.974.775,9.379,9.379,0,0,1-1.181,2.846,1,1,0,0,0,.141,1.236l2.039,2.038-1.933,1.933-2.038-2.039a1,1,0,0,0-1.237-.141,9.348,9.348,0,0,1-2.845,1.181,1,1,0,0,0-.775.975v2.88h-2.733v-2.88a1,1,0,0,0-.774-.975,9.331,9.331,0,0,1-2.846-1.181,1,1,0,0,0-1.237.141l-.727.728a1,1,0,0,0,0,1.414,1,1,0,0,0,1.414,0l.185-.186a11.288,11.288,0,0,0,1.985.824v3.115a1,1,0,0,0,1,1h4.733a1,1,0,0,0,1-1v-3.115a11.3,11.3,0,0,0,1.985-.824l2.2,2.2a1,1,0,0,0,1.414,0l3.347-3.347a1,1,0,0,0,.293-.707,1,1,0,0,0-.293-.707l-2.2-2.2a11.258,11.258,0,0,0,.824-1.985h3.115a1,1,0,0,0,1-1v-4.733A1,1,0,0,0-1289.094-2050.915Z"/>
    </g>
  </g>
</svg>
