<svg id="Group_117" data-name="Group 117" xmlns="http://www.w3.org/2000/svg" xmlns:xlink="http://www.w3.org/1999/xlink" width="89.027" height="91.26" viewBox="0 0 89.027 91.26">
  <defs>
    <style>
      .cls-1 {
        fill: url(#linear-gradient);
      }

      .cls-2 {
        fill: url(#linear-gradient-2);
      }

      .cls-3 {
        fill: url(#linear-gradient-3);
      }

      .cls-4 {
        fill: url(#linear-gradient-4);
      }

      .cls-5 {
        fill: url(#linear-gradient-5);
      }
    </style>
    <linearGradient id="linear-gradient" x1="5.661" y1="-7.529" x2="-0.765" y2="2.468" gradientUnits="objectBoundingBox">
      <stop offset="0" stop-color="#50f29c"/>
      <stop offset="1" stop-color="#00bddb"/>
    </linearGradient>
    <linearGradient id="linear-gradient-2" x1="0.846" y1="-0.497" x2="-0.584" y2="3.624" xlink:href="#linear-gradient"/>
    <linearGradient id="linear-gradient-3" x1="0.458" y1="0.62" x2="-0.971" y2="4.742" xlink:href="#linear-gradient"/>
    <linearGradient id="linear-gradient-4" x1="0.942" y1="-0.773" x2="-0.488" y2="3.348" xlink:href="#linear-gradient"/>
    <linearGradient id="linear-gradient-5" x1="0.695" y1="-0.767" x2="0.373" y2="0.997" xlink:href="#linear-gradient"/>
  </defs>
  <path id="Path_69" data-name="Path 69" class="cls-1" d="M223.671,169.67a2.232,2.232,0,0,0-2.231,2.231v3.805a2.231,2.231,0,1,0,4.463,0V171.9A2.231,2.231,0,0,0,223.671,169.67Z" transform="translate(-213.5 -108.894)"/>
  <path id="Path_70" data-name="Path 70" class="cls-2" d="M251.845,159.716a10.027,10.027,0,1,0-10.027-10.029A10.041,10.041,0,0,0,251.845,159.716Zm0-15.592a5.565,5.565,0,1,1-5.565,5.563A5.571,5.571,0,0,1,251.845,144.124Z" transform="translate(-203.565 -123.524)"/>
  <path id="Path_71" data-name="Path 71" class="cls-3" d="M269.218,148.866a10.027,10.027,0,1,0-10.029-10.027A10.038,10.038,0,0,0,269.218,148.866Zm0-15.591a5.564,5.564,0,1,1-5.566,5.563A5.569,5.569,0,0,1,269.218,133.276Z" transform="translate(-195.096 -128.813)"/>
  <path id="Path_72" data-name="Path 72" class="cls-4" d="M267.537,169.328A10.027,10.027,0,1,0,257.51,159.3,10.039,10.039,0,0,0,267.537,169.328Zm0-15.592a5.565,5.565,0,1,1-5.565,5.565A5.57,5.57,0,0,1,267.537,153.736Z" transform="translate(-195.914 -118.838)"/>
  <path id="Path_73" data-name="Path 73" class="cls-5" d="M303.167,171.569c-2.323-1.794-6.075-2.13-10.029-.9-2.495.777-5.547,2.743-8.776,4.824-4.231,2.725-9.507,6.087-12.375,5.764-4.437-.546-8.518-3.271-9.532-4.674a21.66,21.66,0,0,1,2.133-.473c3.383-.637,8.494-1.6,10.765-7.1,2.042-4.939.8-7.546-.6-8.866-1.827-1.72-4.826-1.952-7.636-.583-3,1.458-7.5,2.817-14.316,4.873l-1.873.567c-7.39,2.234-8.937,3.874-11.475,7.081-.286.361-.589.744-.927,1.157a5.437,5.437,0,0,1-2.081,1.654v-4.509a2.232,2.232,0,0,0-2.231-2.231H218.333a2.231,2.231,0,0,0-2.231,2.231V203.28a2.231,2.231,0,0,0,2.231,2.231h15.882a2.232,2.232,0,0,0,2.231-2.231v-1.145h25.895c13.84,0,20.739-4.28,25.3-7.11,3.982-2.468,17.319-16.067,17.48-19.613A4.63,4.63,0,0,0,303.167,171.569Zm-71.183,29.48h-11.42V172.622h11.42Zm53.309-9.818c-4.381,2.719-10.383,6.441-22.951,6.441H236.447V179.523a9.144,9.144,0,0,0,5.531-3.448c.357-.433.677-.837.976-1.217,2.044-2.584,2.89-3.65,9.269-5.58l1.871-.565c7.02-2.118,11.659-3.518,14.978-5.132a2.741,2.741,0,0,1,2.625-.18c.286.269.556,1.432-.469,3.909-1.253,3.032-3.884,3.744-7.466,4.419-2.268.427-4.411.832-5.474,2.628a3.955,3.955,0,0,0-.027,3.863c1.629,3.316,7.787,6.807,13.18,7.47,4.5.546,10-3,15.338-6.442,2.968-1.911,5.772-3.719,7.685-4.315,3.566-1.11,5.586-.238,6.106.269C299.059,177.989,289.391,188.692,285.293,191.231Z" transform="translate(-216.102 -114.252)"/>
</svg>
