<svg id="Group_118" data-name="Group 118" xmlns="http://www.w3.org/2000/svg" xmlns:xlink="http://www.w3.org/1999/xlink" width="88.84" height="96.221" viewBox="0 0 88.84 96.221">
  <defs>
    <style>
      .cls-1 {
        fill: url(#linear-gradient);
      }

      .cls-2 {
        fill: url(#linear-gradient-2);
      }
    </style>
    <linearGradient id="linear-gradient" x1="0.823" y1="-0.026" x2="0.168" y2="1.076" gradientUnits="objectBoundingBox">
      <stop offset="0" stop-color="#50f29c"/>
      <stop offset="1" stop-color="#00bddb"/>
    </linearGradient>
    <linearGradient id="linear-gradient-2" x1="1.558" y1="-0.384" x2="-0.166" y2="1.008" xlink:href="#linear-gradient"/>
  </defs>
  <path id="Path_74" data-name="Path 74" class="cls-1" d="M339.145,259.957l-9.609-1.019q-.109-.413-.232-.837l7.818-5.69a2.232,2.232,0,0,0,.619-2.92l-5.1-8.842a2.239,2.239,0,0,0-2.84-.924l-8.858,3.938q-.294-.3-.6-.6l3.938-8.858a2.232,2.232,0,0,0-.925-2.838l-8.842-5.1a2.228,2.228,0,0,0-2.92.619L305.9,234.7q-.426-.123-.839-.231l-1.018-9.608a2.23,2.23,0,0,0-2.218-2H291.614a2.23,2.23,0,0,0-2.218,2l-1.016,9.609q-.415.107-.84.231l-5.688-7.817a2.23,2.23,0,0,0-2.92-.619l-8.842,5.1a2.232,2.232,0,0,0-.924,2.838l3.936,8.858c-.2.2-.4.4-.6.6l-8.858-3.937a2.234,2.234,0,0,0-2.838.924l-5.105,8.842a2.232,2.232,0,0,0,.619,2.92l7.818,5.688c-.083.284-.161.565-.231.84l-9.609,1.017a2.229,2.229,0,0,0-2,2.218v10.21a2.231,2.231,0,0,0,2,2.219l9.608,1.016c.07.277.147.555.231.84l-7.818,5.688a2.231,2.231,0,0,0-.619,2.92l5.105,8.842a2.232,2.232,0,0,0,2.838.924L272.5,290.9c.2.2.4.4.6.6l-3.936,8.858a2.232,2.232,0,0,0,.924,2.838l8.842,5.105a2.232,2.232,0,0,0,2.92-.619l2.37-3.258a2.231,2.231,0,0,0-3.609-2.625l-1.189,1.633-5.364-3.1,3.768-8.479a2.229,2.229,0,0,0-.561-2.576,30.039,30.039,0,0,1-2.547-2.548,2.235,2.235,0,0,0-2.576-.559l-8.48,3.768-3.1-5.364,7.491-5.449a2.232,2.232,0,0,0,.8-2.514,29.1,29.1,0,0,1-.954-3.487,2.231,2.231,0,0,0-1.953-1.778l-9.19-.971v-6.2l9.191-.974a2.229,2.229,0,0,0,1.952-1.778,29.077,29.077,0,0,1,.954-3.485,2.23,2.23,0,0,0-.8-2.512l-7.491-5.45,3.1-5.364,8.48,3.768a2.238,2.238,0,0,0,2.576-.559,29.385,29.385,0,0,1,2.547-2.547,2.231,2.231,0,0,0,.561-2.578l-3.768-8.479,5.364-3.1,5.449,7.49a2.234,2.234,0,0,0,2.514.8,29.031,29.031,0,0,1,3.484-.952,2.234,2.234,0,0,0,1.779-1.953l.973-9.191h6.2l.971,9.19a2.234,2.234,0,0,0,1.779,1.955,29.22,29.22,0,0,1,3.487.952,2.224,2.224,0,0,0,2.512-.8l5.449-7.49,5.366,3.1-3.769,8.479a2.236,2.236,0,0,0,.559,2.578,29.619,29.619,0,0,1,2.548,2.547,2.236,2.236,0,0,0,2.578.559l8.479-3.768,3.1,5.364-7.49,5.45a2.228,2.228,0,0,0-.8,2.512,29.527,29.527,0,0,1,.953,3.488,2.228,2.228,0,0,0,1.952,1.775l9.19.974v6.2l-9.189.971a2.231,2.231,0,0,0-1.955,1.775,29.176,29.176,0,0,1-.952,3.49,2.23,2.23,0,0,0,.8,2.514l7.49,5.449-3.1,5.364-8.479-3.768a2.233,2.233,0,0,0-2.578.559,29.209,29.209,0,0,1-2.548,2.548,2.233,2.233,0,0,0-.559,2.576l3.769,8.479-5.366,3.1-.866-1.19a2.231,2.231,0,0,0-3.609,2.625l2.047,2.814a2.233,2.233,0,0,0,2.92.619l8.842-5.105a2.232,2.232,0,0,0,.925-2.838l-3.937-8.858q.3-.3.6-.6l8.858,3.936a2.238,2.238,0,0,0,2.84-.924l5.1-8.842a2.231,2.231,0,0,0-.619-2.92l-7.818-5.688q.123-.426.232-.84l9.608-1.016a2.231,2.231,0,0,0,2-2.219v-10.21A2.229,2.229,0,0,0,339.145,259.957Z" transform="translate(-252.3 -222.86)"/>
  <path id="Path_75" data-name="Path 75" class="cls-2" d="M294.356,242.075a2.23,2.23,0,0,0-3.082,2.062v10.529h-6.71V244.137a2.23,2.23,0,0,0-3.082-2.062,16.859,16.859,0,0,0-2.152,30.1v35.387a2.231,2.231,0,0,0,4.463,0V270.841a2.233,2.233,0,0,0-1.258-2.008,12.4,12.4,0,0,1-2.432-20.806v8.87a2.231,2.231,0,0,0,2.231,2.231H293.5a2.231,2.231,0,0,0,2.231-2.231v-8.87a12.4,12.4,0,0,1-2.432,20.806,2.232,2.232,0,0,0-1.26,2.008v36.723a2.231,2.231,0,0,0,4.463,0V272.177a16.859,16.859,0,0,0-2.151-30.1Z" transform="translate(-243.161 -213.574)"/>
</svg>
